<?xml version="1.0" encoding="UTF-8" standalone="no"?>
<!-- Created with Inkscape (http://www.inkscape.org/) -->

<svg
   width="40.797256mm"
   height="52.736938mm"
   viewBox="0 0 40.797257 52.736938"
   version="1.1"
   id="svg1"
   xml:space="preserve"
   sodipodi:docname="0db_logo_2.svg"
   inkscape:version="1.4.2 (ebf0e940d0, 2025-05-08)"
   inkscape:export-filename="0db_logo_2.svg"
   inkscape:export-xdpi="105.84052"
   inkscape:export-ydpi="105.84052"
   xmlns:inkscape="http://www.inkscape.org/namespaces/inkscape"
   xmlns:sodipodi="http://sodipodi.sourceforge.net/DTD/sodipodi-0.dtd"
   xmlns="http://www.w3.org/2000/svg"
   xmlns:svg="http://www.w3.org/2000/svg"><sodipodi:namedview
     id="namedview1"
     pagecolor="#ffffff"
     bordercolor="#000000"
     borderopacity="0.25"
     inkscape:showpageshadow="2"
     inkscape:pageopacity="0.0"
     inkscape:pagecheckerboard="0"
     inkscape:deskcolor="#d1d1d1"
     inkscape:document-units="mm"
     showguides="false"
     inkscape:zoom="0.77415123"
     inkscape:cx="419.81461"
     inkscape:cy="774.39649"
     inkscape:window-width="1209"
     inkscape:window-height="1038"
     inkscape:window-x="0"
     inkscape:window-y="0"
     inkscape:window-maximized="1"
     inkscape:current-layer="layer1"><inkscape:page
       x="0"
       y="0"
       width="40.797256"
       height="52.736938"
       id="page1"
       margin="0"
       bleed="0" /></sodipodi:namedview><defs
     id="defs1" /><g
     inkscape:label="Capa 1"
     inkscape:groupmode="layer"
     id="layer1"
     transform="translate(-115.34608,-188.78048)"><path
       d="m 116.63659,240.09532 q -0.37329,0 -0.66481,-0.12443 -0.29152,-0.12443 -0.45861,-0.37329 -0.16709,-0.25241 -0.16709,-0.6257 0,-0.3164 0.11732,-0.52616 0.11732,-0.2133 0.31996,-0.34129 0.2062,-0.13154 0.46928,-0.19908 0.26663,-0.0676 0.55815,-0.0924 0.34485,-0.0356 0.54749,-0.0675 0.20264,-0.032 0.29152,-0.0924 0.0889,-0.0604 0.0889,-0.18131 v -0.0249 q 0,-0.13865 -0.0747,-0.24175 -0.0747,-0.10666 -0.21331,-0.16709 -0.13509,-0.0604 -0.32707,-0.0604 -0.19198,0 -0.34129,0.0604 -0.14576,0.0604 -0.23108,0.17064 -0.0853,0.11021 -0.0996,0.25597 h -0.98477 q 0.0249,-0.38751 0.22753,-0.67192 0.2062,-0.2844 0.57593,-0.43727 0.36973,-0.15643 0.88523,-0.15643 0.38395,0 0.68613,0.0889 0.30219,0.0853 0.50838,0.25241 0.20976,0.16709 0.31641,0.40528 0.10665,0.2382 0.10665,0.54038 v 2.54547 h -1.02387 v -0.52972 h -0.0142 q -0.0995,0.18487 -0.2453,0.31641 -0.14576,0.13154 -0.35552,0.2062 -0.20975,0.0711 -0.49771,0.0711 z m 0.29152,-0.7288 q 0.25241,0 0.43372,-0.0924 0.18487,-0.0924 0.28441,-0.25242 0.0995,-0.15998 0.0995,-0.36262 v -0.37684 q -0.0462,0.0249 -0.12087,0.0498 -0.0747,0.0213 -0.1742,0.0427 -0.0995,0.0178 -0.21686,0.0391 -0.11732,0.0213 -0.24175,0.0391 -0.18131,0.0284 -0.32707,0.0889 -0.14576,0.0569 -0.23108,0.15643 -0.0853,0.096 -0.0853,0.2453 0,0.13154 0.0711,0.22753 0.0711,0.096 0.20264,0.14576 0.13154,0.0498 0.30574,0.0498 z m 3.90352,0.74302 q -0.39818,0 -0.69681,-0.17065 -0.29507,-0.1742 -0.45861,-0.50482 -0.16353,-0.33418 -0.16353,-0.80701 v -2.34994 h 1.04876 v 2.15796 q 0,0.37684 0.18131,0.57593 0.18131,0.19553 0.50838,0.19553 0.21686,0 0.3804,-0.0889 0.16709,-0.0889 0.25952,-0.2773 0.096,-0.18842 0.096,-0.47638 v -2.08686 h 1.0452 v 3.75421 h -1.02742 v -0.97766 h 0.17775 q -0.17775,0.49772 -0.50838,0.77857 -0.32707,0.2773 -0.84256,0.2773 z m 4.40479,0 q -0.49061,0 -0.85679,-0.2453 -0.36617,-0.24531 -0.56882,-0.68614 -0.19908,-0.44084 -0.19908,-1.02743 0,-0.57948 0.20264,-1.01676 0.2062,-0.44084 0.56882,-0.68614 0.36618,-0.24886 0.84612,-0.24886 0.2453,0 0.4515,0.0675 0.20619,0.064 0.36973,0.19553 0.16353,0.13154 0.28441,0.33418 h 0.004 v -2.06197 h 1.04521 v 5.29713 h -1.03099 v -0.57593 h -0.004 q -0.11021,0.21686 -0.2773,0.36617 -0.16354,0.14576 -0.37684,0.21687 -0.21331,0.0711 -0.45861,0.0711 z m 0.27019,-0.85323 q 0.26663,0 0.46216,-0.13509 0.19909,-0.13865 0.3093,-0.38751 0.1102,-0.24886 0.1102,-0.58304 0,-0.33774 -0.1102,-0.58304 -0.11021,-0.24886 -0.3093,-0.38395 -0.19553,-0.13865 -0.46216,-0.13865 -0.25242,0 -0.44084,0.13154 -0.18842,0.13154 -0.29507,0.37684 -0.1031,0.2453 -0.1031,0.59726 0,0.35196 0.1031,0.60081 0.10665,0.24531 0.29507,0.37685 0.18842,0.12798 0.44084,0.12798 z m 2.62012,0.77502 v -3.75421 h 1.04876 v 3.75421 z m 0.5226,-4.22704 q -0.25952,0 -0.43017,-0.15642 -0.17065,-0.15998 -0.17065,-0.40173 0,-0.24175 0.17065,-0.39817 0.17065,-0.15998 0.42661,-0.15998 0.25953,0 0.43017,0.15998 0.17065,0.15642 0.17065,0.39817 0,0.24175 -0.17065,0.40173 -0.17064,0.15642 -0.42661,0.15642 z m 3.00763,4.31236 q -0.56527,0 -0.99543,-0.2453 -0.43017,-0.24531 -0.67192,-0.68614 -0.23819,-0.44084 -0.23819,-1.02743 0,-0.59015 0.23819,-1.03098 0.24175,-0.44084 0.67192,-0.68614 0.43016,-0.24886 0.99543,-0.24886 0.57237,0 0.99899,0.24886 0.43017,0.2453 0.66836,0.68614 0.24175,0.44083 0.24175,1.03098 0,0.58659 -0.24175,1.02743 -0.23819,0.44083 -0.66836,0.68614 -0.42662,0.2453 -0.99899,0.2453 z m 0,-0.84967 q 0.25597,0 0.44794,-0.13154 0.19198,-0.1351 0.29863,-0.38396 0.10666,-0.24885 0.10666,-0.5937 0,-0.35196 -0.10666,-0.60082 -0.10665,-0.24885 -0.29863,-0.38039 -0.19197,-0.1351 -0.44794,-0.1351 -0.25242,0 -0.44439,0.1351 -0.19198,0.13154 -0.29863,0.38039 -0.10665,0.24886 -0.10665,0.60082 0,0.3484 0.10665,0.59726 0.10665,0.2453 0.29863,0.3804 0.19197,0.13154 0.44439,0.13154 z m 4.04572,2.25039 v -5.24025 h 1.03454 v 0.50838 h 0.0107 q 0.11731,-0.19553 0.28085,-0.32351 0.16709,-0.13154 0.37684,-0.19553 0.21331,-0.0675 0.45506,-0.0675 0.47994,0 0.84256,0.24886 0.36618,0.2453 0.56882,0.68614 0.2062,0.43728 0.2062,1.01676 0,0.58659 -0.20265,1.02743 -0.20264,0.44083 -0.56526,0.68614 -0.36262,0.2453 -0.85678,0.2453 -0.24531,0 -0.45506,-0.0711 -0.2062,-0.0711 -0.36973,-0.21331 -0.15998,-0.14221 -0.26663,-0.35551 h -0.0107 v 2.04775 z m 1.88066,-2.26106 q 0.25597,0 0.44083,-0.12798 0.18842,-0.13154 0.29152,-0.37685 0.10666,-0.24885 0.10666,-0.60081 0,-0.35196 -0.10666,-0.59726 -0.1031,-0.2453 -0.29152,-0.37684 -0.18486,-0.13154 -0.44083,-0.13154 -0.26308,0 -0.46572,0.13865 -0.19909,0.13509 -0.3093,0.38395 -0.10665,0.2453 -0.10665,0.58304 0,0.33418 0.10665,0.58304 0.11021,0.24886 0.3093,0.38751 0.20264,0.13509 0.46572,0.13509 z m 3.68665,0.77502 q -0.64347,0 -0.93144,-0.23464 -0.28441,-0.23819 -0.28441,-0.78213 v -4.28036 h 1.04876 v 4.18082 q 0,0.1742 0.0711,0.2453 0.0711,0.0675 0.2453,0.0675 0.0356,0 0.0782,0 0.0427,0 0.0747,0 v 0.80346 q -0.0747,0 -0.15287,0 -0.0747,0 -0.14932,0 z m 1.91977,0.064 q -0.37329,0 -0.66481,-0.12443 -0.29152,-0.12443 -0.45861,-0.37329 -0.16709,-0.25241 -0.16709,-0.6257 0,-0.3164 0.11732,-0.52616 0.11732,-0.2133 0.31996,-0.34129 0.2062,-0.13154 0.46927,-0.19908 0.26664,-0.0676 0.55816,-0.0924 0.34484,-0.0356 0.54749,-0.0675 0.20264,-0.032 0.29152,-0.0924 0.0889,-0.0604 0.0889,-0.18131 v -0.0249 q 0,-0.13865 -0.0747,-0.24175 -0.0747,-0.10666 -0.21331,-0.16709 -0.1351,-0.0604 -0.32707,-0.0604 -0.19198,0 -0.34129,0.0604 -0.14576,0.0604 -0.23109,0.17064 -0.0853,0.11021 -0.0995,0.25597 h -0.98477 q 0.0249,-0.38751 0.22753,-0.67192 0.2062,-0.2844 0.57593,-0.43727 0.36973,-0.15643 0.88522,-0.15643 0.38396,0 0.68614,0.0889 0.30219,0.0853 0.50838,0.25241 0.20976,0.16709 0.31641,0.40528 0.10665,0.2382 0.10665,0.54038 v 2.54547 h -1.02387 v -0.52972 h -0.0142 q -0.0995,0.18487 -0.2453,0.31641 -0.14576,0.13154 -0.35552,0.2062 -0.20975,0.0711 -0.49771,0.0711 z m 0.29152,-0.7288 q 0.25241,0 0.43372,-0.0924 0.18487,-0.0924 0.28441,-0.25242 0.0995,-0.15998 0.0995,-0.36262 v -0.37684 q -0.0462,0.0249 -0.12087,0.0498 -0.0747,0.0213 -0.1742,0.0427 -0.0995,0.0178 -0.21686,0.0391 -0.11732,0.0213 -0.24175,0.0391 -0.18131,0.0284 -0.32707,0.0889 -0.14576,0.0569 -0.23108,0.15643 -0.0853,0.096 -0.0853,0.2453 0,0.13154 0.0711,0.22753 0.0711,0.096 0.20264,0.14576 0.13154,0.0498 0.30574,0.0498 z m 2.51844,2.15085 v -0.82835 h 0.47638 q 0.12799,0 0.2062,-0.0391 0.0782,-0.0391 0.13154,-0.12799 0.0569,-0.0853 0.10665,-0.23108 l 0.1031,-0.27374 -1.44338,-3.73999 h 1.09853 l 0.62926,1.85577 q 0.10665,0.32707 0.2062,0.66126 0.0995,0.33062 0.19197,0.6648 h -0.29152 q 0.0889,-0.33418 0.18842,-0.6648 0.0995,-0.33419 0.2062,-0.66126 l 0.63281,-1.85577 h 1.08787 l -1.65313,4.33369 q -0.11732,0.31285 -0.28441,0.51194 -0.16354,0.20264 -0.38751,0.29863 -0.22042,0.096 -0.51194,0.096 -0.17064,0 -0.3484,0 -0.1742,0 -0.34484,0 z m 5.52194,-1.40072 q -0.56882,0 -0.99188,-0.24886 -0.4195,-0.25241 -0.65414,-0.6968 -0.23108,-0.44439 -0.23108,-1.01321 0,-0.57593 0.23464,-1.01676 0.23819,-0.44439 0.65414,-0.69681 0.41595,-0.25241 0.95277,-0.25241 0.41595,0 0.75368,0.1422 0.33774,0.13865 0.58304,0.40173 0.24531,0.25953 0.37685,0.61504 0.13509,0.35551 0.13509,0.78568 v 0.28085 h -3.31692 v -0.66836 h 2.81209 l -0.47283,0.15998 q 0,-0.28441 -0.1031,-0.4906 -0.10309,-0.2062 -0.29507,-0.31641 -0.18842,-0.11376 -0.4515,-0.11376 -0.25952,0 -0.44794,0.11376 -0.18843,0.11021 -0.29152,0.31641 -0.1031,0.20619 -0.1031,0.4906 v 0.45506 q 0,0.29152 0.1031,0.51193 0.10665,0.21687 0.30574,0.33774 0.19908,0.11732 0.47994,0.11732 0.20619,0 0.36262,-0.0569 0.15998,-0.0604 0.26663,-0.16709 0.11021,-0.11021 0.15643,-0.25597 h 0.95632 q -0.0675,0.37328 -0.3164,0.65769 -0.24886,0.28441 -0.6257,0.44795 -0.37684,0.15998 -0.8319,0.15998 z m 2.37482,-0.0853 v -3.75421 h 1.00965 v 0.63992 h 0.0107 q 0.1031,-0.33773 0.32352,-0.50127 0.22041,-0.16353 0.5937,-0.16353 0.0924,0 0.16709,0.004 0.0782,0 0.1422,0.004 v 0.89233 q -0.0569,-0.004 -0.18842,-0.0107 -0.12798,-0.007 -0.26307,-0.007 -0.21331,0 -0.38396,0.0995 -0.17064,0.096 -0.26663,0.28796 -0.096,0.19198 -0.096,0.47639 v 2.03353 z"
       id="text3"
       style="font-weight:bold;font-size:7.28088px;font-family:'Adwaita Sans';-inkscape-font-specification:'Adwaita Sans Bold';stroke-width:0.170645"
       aria-label="audio player" /><path
       d="m 123.88924,221.99381 c -1.55028,1.5e-4 -2.90401,-0.38729 -4.06117,-1.16232 -1.15717,-0.77504 -2.05599,-1.85902 -2.69645,-3.25197 -0.62923,-1.39295 -0.94393,-3.01622 -0.94411,-4.86981 -1.7e-4,-1.83113 0.31985,-3.43761 0.96005,-4.81945 0.65144,-1.39306 1.55004,-2.47722 2.69583,-3.25247 1.15702,-0.78648 2.49382,-1.1798 4.0104,-1.17994 0.77514,-7e-5 1.4885,0.10658 2.14009,0.31997 0.65159,0.20214 1.23708,0.51318 1.75258,0.92663 0.54086,0.43378 0.96621,0.94356 1.34822,1.58385 h 0.0169 l -9.2e-4,-9.77351 4.95416,-5e-4 0.002,25.10785 -4.88676,4.6e-4 -2.6e-4,-2.72985 -0.0169,1e-5 c -0.34818,0.6853 -0.78625,1.26388 -1.3142,1.73576 -0.51672,0.46064 -1.11209,0.80333 -1.78609,1.02807 -0.67401,0.22474 -1.39859,0.33715 -2.17373,0.33722 z m 1.28028,-4.04433 c 0.84255,-8e-5 1.57273,-0.21359 2.19056,-0.64054 0.62905,-0.43818 1.11768,-1.05047 1.46585,-1.83688 0.34818,-0.78641 0.52221,-1.70761 0.52211,-2.76359 -1e-4,-1.06723 -0.17431,-1.98839 -0.52263,-2.7635 -0.34832,-0.78634 -0.83706,-1.39293 -1.4662,-1.81976 -0.61791,-0.43806 -1.34813,-0.65705 -2.19068,-0.65698 -0.79761,8e-5 -1.49409,0.20797 -2.08944,0.62368 -0.59536,0.41572 -1.06152,1.01116 -1.39847,1.78633 -0.3257,0.77517 -0.4885,1.71884 -0.4884,2.83099 1.1e-4,1.11216 0.16309,2.06141 0.48894,2.84776 0.33709,0.7751 0.80336,1.37046 1.3988,1.78606 0.59543,0.40436 1.29195,0.60651 2.08956,0.60643 z m 22.43301,7.2442 c -0.77514,7e-5 -1.49974,-0.1122 -2.17379,-0.33681 -0.67405,-0.22462 -1.27511,-0.56719 -1.80314,-1.02773 -0.5168,-0.47178 -0.94937,-1.05029 -1.29768,-1.73552 h -0.0169 l 10e-6,1.68649 c 4e-5,7.33948 -12.74901,7.3037 -13.06001,7.21826 -0.31101,-0.0854 -13.06096,-0.0244 -13.06096,-7.21796 l -1e-5,-4.98831 c 0,2.83684 4.903,4.4677 4.90299,3.87818 l 2e-5,1.11013 c 0,0.96464 3.11291,4.22194 8.15796,4.22195 5.04505,0 8.15703,-2.20196 8.15701,-4.22195 l -2.7e-4,-24.064 c -7e-5,-6.12621 -3.5815,-7.52211 -8.157,-7.52211 -4.57549,0 -8.15816,1.63434 -8.15786,7.52211 l 1.6e-4,3.05936 c -6e-5,-1.0301 -4.90312,1.28169 -4.90301,4.55838 l -2.6e-4,-7.61774 c -2.1e-4,-5.77605 2.85197,-10.93593 13.061,-10.93593 10.20903,0 13.02927,6.39756 13.05989,10.93593 l 0.0659,9.77274 h 0.0169 c 0.38189,-0.64037 0.8312,-1.16841 1.34792,-1.58411 0.51672,-0.41571 1.10085,-0.72469 1.7524,-0.92696 0.66279,-0.21351 1.37613,-0.3203 2.14004,-0.32037 1.51657,-1.5e-4 2.84783,0.39291 3.99376,1.17918 1.15717,0.77503 2.05599,1.85902 2.69645,3.25197 0.6517,1.38171 0.97764,2.98813 0.97781,4.81926 1.8e-4,1.85359 -0.31984,3.47692 -0.96004,4.86999 -0.64021,1.39307 -1.5332,2.47722 -2.67898,3.25247 -1.14579,0.77525 -2.49944,1.16295 -4.06096,1.1631 z m -1.28104,-4.04409 c 0.80884,-8e-5 1.50532,-0.20235 2.08945,-0.60683 0.59535,-0.41571 1.05588,-1.01115 1.3816,-1.78632 0.33694,-0.78641 0.50536,-1.73569 0.50525,-2.84785 -1e-4,-1.11215 -0.1687,-2.05579 -0.50578,-2.8309 -0.32587,-0.77511 -0.78651,-1.37046 -1.38194,-1.78606 -0.58421,-0.4156 -1.28073,-0.62336 -2.08957,-0.62329 -0.83131,8e-5 -1.56712,0.21921 -2.20741,0.6574 -0.62906,0.42695 -1.11768,1.03362 -1.46586,1.82003 -0.33693,0.77517 -0.50536,1.69637 -0.50526,2.76359 1e-4,1.05599 0.1687,1.97716 0.50578,2.7635 0.34833,0.78634 0.83707,1.39854 1.46621,1.83661 0.64037,0.42682 1.37622,0.6402 2.20753,0.64012 z"
       id="text2"
       style="font-weight:bold;font-size:34.5106px;font-family:'Adwaita Sans';-inkscape-font-specification:'Adwaita Sans Bold';display:inline;stroke-width:0.80884"
       aria-label="0db"
       sodipodi:nodetypes="sscsccscacccccccccssscssccsscsccssscccsssssszsszsssszsccscsccssssssccsccsccsccs" /></g></svg>
