<?xml version="1.0" encoding="UTF-8" standalone="no"?>
<!-- Created with Inkscape (http://www.inkscape.org/) -->

<svg
   width="40.797234mm"
   height="52.736889mm"
   viewBox="0 0 40.797234 52.736889"
   version="1.1"
   id="svg1"
   xml:space="preserve"
   sodipodi:docname="0db_logo_2.svg"
   inkscape:version="1.4.2 (ebf0e940d0, 2025-05-08)"
   inkscape:export-filename="0db_logo_2.svg"
   inkscape:export-xdpi="105.84052"
   inkscape:export-ydpi="105.84052"
   xmlns:inkscape="http://www.inkscape.org/namespaces/inkscape"
   xmlns:sodipodi="http://sodipodi.sourceforge.net/DTD/sodipodi-0.dtd"
   xmlns="http://www.w3.org/2000/svg"
   xmlns:svg="http://www.w3.org/2000/svg"><sodipodi:namedview
     id="namedview1"
     pagecolor="#ffffff"
     bordercolor="#000000"
     borderopacity="0.25"
     inkscape:showpageshadow="2"
     inkscape:pageopacity="0.0"
     inkscape:pagecheckerboard="0"
     inkscape:deskcolor="#d1d1d1"
     inkscape:document-units="mm"
     showguides="false"
     inkscape:zoom="0.77415123"
     inkscape:cx="419.81461"
     inkscape:cy="774.39649"
     inkscape:window-width="1209"
     inkscape:window-height="1038"
     inkscape:window-x="0"
     inkscape:window-y="0"
     inkscape:window-maximized="1"
     inkscape:current-layer="layer1"><inkscape:page
       x="0"
       y="0"
       width="40.797234"
       height="52.736889"
       id="page1"
       margin="0"
       bleed="0" /></sodipodi:namedview><defs
     id="defs1" /><g
     inkscape:label="Capa 1"
     inkscape:groupmode="layer"
     id="layer1"
     transform="translate(-115.34608,-188.78048)"><text
       xml:space="preserve"
       style="font-style:normal;font-variant:normal;font-weight:bold;font-stretch:normal;font-size:7.28088px;font-family:'Adwaita Sans';-inkscape-font-specification:'Adwaita Sans Bold';text-align:start;writing-mode:lr-tb;direction:ltr;text-anchor:start;display:inline;fill:#000000;stroke-width:0.170645"
       x="115.11855"
       y="240.03133"
       id="text3"><tspan
         sodipodi:role="line"
         id="tspan3"
         style="stroke-width:0.170645"
         x="115.11855"
         y="240.03133">audio player</tspan></text><path
       d="m 123.88924,221.99381 c -1.55028,1.5e-4 -2.90401,-0.38729 -4.06117,-1.16232 -1.15717,-0.77504 -2.05599,-1.85902 -2.69645,-3.25197 -0.62923,-1.39295 -0.94393,-3.01622 -0.94411,-4.86981 -1.7e-4,-1.83113 0.31985,-3.43761 0.96005,-4.81945 0.65144,-1.39306 1.55004,-2.47722 2.69583,-3.25247 1.15702,-0.78648 2.49382,-1.1798 4.0104,-1.17994 0.77514,-7e-5 1.4885,0.10658 2.14009,0.31997 0.65159,0.20214 1.23708,0.51318 1.75258,0.92663 0.54086,0.43378 0.96621,0.94356 1.34822,1.58385 h 0.0169 l -9.2e-4,-9.77351 4.95416,-5e-4 0.002,25.10785 -4.88676,4.6e-4 -2.6e-4,-2.72985 -0.0169,1e-5 c -0.34818,0.6853 -0.78625,1.26388 -1.3142,1.73576 -0.51672,0.46064 -1.11209,0.80333 -1.78609,1.02807 -0.67401,0.22474 -1.39859,0.33715 -2.17373,0.33722 z m 1.28028,-4.04433 c 0.84255,-8e-5 1.57273,-0.21359 2.19056,-0.64054 0.62905,-0.43818 1.11768,-1.05047 1.46585,-1.83688 0.34818,-0.78641 0.52221,-1.70761 0.52211,-2.76359 -1e-4,-1.06723 -0.17431,-1.98839 -0.52263,-2.7635 -0.34832,-0.78634 -0.83706,-1.39293 -1.4662,-1.81976 -0.61791,-0.43806 -1.34813,-0.65705 -2.19068,-0.65698 -0.79761,8e-5 -1.49409,0.20797 -2.08944,0.62368 -0.59536,0.41572 -1.06152,1.01116 -1.39847,1.78633 -0.3257,0.77517 -0.4885,1.71884 -0.4884,2.83099 1.1e-4,1.11216 0.16309,2.06141 0.48894,2.84776 0.33709,0.7751 0.80336,1.37046 1.3988,1.78606 0.59543,0.40436 1.29195,0.60651 2.08956,0.60643 z m 22.43301,7.2442 c -0.77514,7e-5 -1.49974,-0.1122 -2.17379,-0.33681 -0.67405,-0.22462 -1.27511,-0.56719 -1.80314,-1.02773 -0.5168,-0.47178 -0.94937,-1.05029 -1.29768,-1.73552 h -0.0169 l 10e-6,1.68649 c 4e-5,7.33948 -12.74901,7.3037 -13.06001,7.21826 -0.31101,-0.0854 -13.06096,-0.0244 -13.06096,-7.21796 l -1e-5,-4.98831 c 0,2.83684 4.903,4.4677 4.90299,3.87818 l 2e-5,1.11013 c 0,0.96464 3.11291,4.22194 8.15796,4.22195 5.04505,0 8.15703,-2.20196 8.15701,-4.22195 l -2.7e-4,-24.064 c -7e-5,-6.12621 -3.5815,-7.52211 -8.157,-7.52211 -4.57549,0 -8.15816,1.63434 -8.15786,7.52211 l 1.6e-4,3.05936 c -6e-5,-1.0301 -4.90312,1.28169 -4.90301,4.55838 l -2.6e-4,-7.61774 c -2.1e-4,-5.77605 2.85197,-10.93593 13.061,-10.93593 10.20903,0 13.02927,6.39756 13.05989,10.93593 l 0.0659,9.77274 h 0.0169 c 0.38189,-0.64037 0.8312,-1.16841 1.34792,-1.58411 0.51672,-0.41571 1.10085,-0.72469 1.7524,-0.92696 0.66279,-0.21351 1.37613,-0.3203 2.14004,-0.32037 1.51657,-1.5e-4 2.84783,0.39291 3.99376,1.17918 1.15717,0.77503 2.05599,1.85902 2.69645,3.25197 0.6517,1.38171 0.97764,2.98813 0.97781,4.81926 1.8e-4,1.85359 -0.31984,3.47692 -0.96004,4.86999 -0.64021,1.39307 -1.5332,2.47722 -2.67898,3.25247 -1.14579,0.77525 -2.49944,1.16295 -4.06096,1.1631 z m -1.28104,-4.04409 c 0.80884,-8e-5 1.50532,-0.20235 2.08945,-0.60683 0.59535,-0.41571 1.05588,-1.01115 1.3816,-1.78632 0.33694,-0.78641 0.50536,-1.73569 0.50525,-2.84785 -1e-4,-1.11215 -0.1687,-2.05579 -0.50578,-2.8309 -0.32587,-0.77511 -0.78651,-1.37046 -1.38194,-1.78606 -0.58421,-0.4156 -1.28073,-0.62336 -2.08957,-0.62329 -0.83131,8e-5 -1.56712,0.21921 -2.20741,0.6574 -0.62906,0.42695 -1.11768,1.03362 -1.46586,1.82003 -0.33693,0.77517 -0.50536,1.69637 -0.50526,2.76359 1e-4,1.05599 0.1687,1.97716 0.50578,2.7635 0.34833,0.78634 0.83707,1.39854 1.46621,1.83661 0.64037,0.42682 1.37622,0.6402 2.20753,0.64012 z"
       id="text2"
       style="font-weight:bold;font-size:34.5106px;font-family:'Adwaita Sans';-inkscape-font-specification:'Adwaita Sans Bold';display:inline;stroke-width:0.80884"
       aria-label="0db"
       sodipodi:nodetypes="sscsccscacccccccccssscssccsscsccssscccsssssszsszsssszsccscsccssssssccsccsccsccs" /></g></svg>
